<svg width="2055" height="2004" viewBox="0 0 2055 2004" fill="none" xmlns="http://www.w3.org/2000/svg">
<path fill-rule="evenodd" clip-rule="evenodd" d="M2054.93 886.112V810.397C1712.85 837.755 1496.15 929.506 1343.91 1048.92C1197.65 1163.63 1111.34 1303.58 1030.62 1434.48C1022.92 1446.96 1015.27 1459.36 1007.62 1471.65C919.654 1613.07 832.252 1739.54 673.885 1809.97C528.766 1874.51 323.021 1892.42 0.865234 1829.34V1842.59C322.887 1905.34 530.988 1887.75 679.168 1821.85C841.488 1749.66 930.666 1619.98 1018.66 1478.52C1026.23 1466.35 1033.79 1454.1 1041.39 1441.78L1041.57 1441.49L1041.6 1441.45C1122.45 1310.39 1207.59 1172.36 1351.93 1059.15C1375.46 1040.69 1400.59 1022.88 1427.54 1005.87C1397.17 1025.98 1368.92 1047.22 1342.49 1069.4C1195.07 1193.17 1107.04 1344.77 1027.04 1482.53L1027.02 1482.58C1019.49 1495.55 1012.03 1508.39 1004.6 1521.08C917.107 1670.47 834.07 1797.18 688.01 1869.04C546.922 1938.44 340.199 1959.63 0.865234 1884.26V1957.97C338.809 2031 560.148 2012.18 719.793 1933.64C731.826 1927.72 743.471 1921.48 754.754 1914.94C760.32 1912.42 765.803 1909.83 771.205 1907.17C929.877 1829.11 1018.37 1691.68 1105.71 1542.56C1113.11 1529.92 1120.5 1517.19 1127.93 1504.41C1208.36 1366.02 1292.8 1220.7 1434.25 1101.95C1476.47 1066.51 1523.79 1033.41 1577.66 1003.59C1699.35 945.464 1853.54 903.047 2054.93 886.112ZM1392.52 1121.43C1391.27 1122.47 1390.03 1123.5 1388.79 1124.54C1251.47 1239.82 1169.51 1380.78 1088.75 1519.67C1084.24 1527.43 1079.73 1535.19 1075.22 1542.93C1072.39 1547.78 1069.56 1552.63 1066.73 1557.46C1009.02 1656 949.094 1752.76 866.664 1830.81C962.234 1753.7 1028.2 1649.17 1094.49 1535.99C1099.99 1526.59 1105.49 1517.14 1111.02 1507.64L1116.79 1497.71C1190.64 1370.6 1268.94 1235.83 1392.52 1121.43Z" fill="black" fill-opacity="0.2"/>
<path fill-rule="evenodd" clip-rule="evenodd" d="M2054.93 76.3345V0.619629C1712.85 27.978 1496.15 119.729 1343.91 239.143C1197.65 353.855 1111.34 493.803 1030.62 624.702C1022.92 637.185 1015.27 649.586 1007.62 661.876C919.654 803.294 832.252 929.758 673.885 1000.19C528.766 1064.74 323.021 1082.65 0.865234 1019.57V1032.81C322.887 1095.57 530.988 1077.98 679.168 1012.07C841.488 939.878 930.666 810.205 1018.66 668.743C1026.23 656.576 1033.79 644.321 1041.39 632.002L1041.57 631.709L1041.6 631.67C1122.45 500.609 1207.59 362.584 1351.93 249.373C1375.46 230.912 1400.59 213.103 1427.54 196.092C1397.17 216.2 1368.92 237.439 1342.49 259.624C1195.07 383.391 1107.04 534.995 1027.04 672.75L1027.02 672.801C1019.49 685.769 1012.03 698.613 1004.6 711.3C917.107 860.688 834.07 987.406 688.01 1059.26C546.922 1128.67 340.199 1149.85 0.865234 1074.48V1148.19C338.809 1221.22 560.148 1202.4 719.793 1123.87C731.826 1117.95 743.471 1111.7 754.754 1105.16C760.32 1102.64 765.803 1100.05 771.205 1097.4C929.877 1019.34 1018.37 881.904 1105.71 732.778C1113.11 720.14 1120.5 707.417 1127.93 694.635C1208.36 556.24 1292.8 410.926 1434.25 292.173C1476.47 256.735 1523.79 223.635 1577.66 193.81C1699.35 135.687 1853.54 93.27 2054.93 76.3345ZM1392.52 311.653C1391.27 312.689 1390.03 313.727 1388.79 314.767C1251.47 430.047 1169.51 571.003 1088.75 709.894C1084.24 717.656 1079.73 725.411 1075.22 733.155C1072.39 738.003 1069.56 742.848 1066.73 747.687C1009.02 846.227 949.094 942.985 866.664 1021.04C962.234 943.92 1028.2 839.395 1094.49 726.208C1099.99 716.815 1105.49 707.362 1111.02 697.862L1116.79 687.929C1190.64 560.819 1268.94 426.056 1392.52 311.653Z" fill="black" fill-opacity="0.2"/>
<path fill-rule="evenodd" clip-rule="evenodd" d="M290.702 0.622559H283.985C257.265 34.5471 236.37 70.5114 216.287 105.078L216.286 105.08L213.949 109.101C211.714 112.946 209.486 116.773 207.259 120.576C180.424 166.395 153.721 208.708 115.032 239.926C148.401 208.33 172.658 169.161 196.02 129.27C197.168 127.312 198.313 125.35 199.457 123.388C201.071 120.62 202.683 117.849 204.295 115.075L204.937 113.971L204.94 113.967C227.384 75.3684 250.056 36.3757 280.051 0.622559H242.818C218.177 33.1146 198.532 66.947 179.957 98.935L179.957 98.9351L179.945 98.9557C176.897 104.205 173.877 109.405 170.87 114.541C135.453 175.015 101.838 226.312 42.7107 255.399C30.1447 261.581 16.2924 266.818 0.865234 270.901V300.95C20.9743 296.202 39.0885 289.664 55.577 281.553C60.4482 279.156 65.1621 276.629 69.7297 273.98C71.983 272.961 74.2024 271.913 76.3893 270.837C140.622 239.238 176.445 183.603 211.799 123.235C214.796 118.119 217.789 112.969 220.796 107.794L220.797 107.793C241.577 72.0355 263.02 35.1376 290.702 0.622559ZM0.865234 249.642C14.6641 246.011 27.3645 241.53 39.1314 236.297C104.841 207.072 140.941 154.578 176.563 97.3127C179.627 92.3873 182.688 87.4264 185.764 82.4397L185.838 82.3211L185.847 82.3053L185.848 82.3045C202.542 55.2415 219.689 27.4451 240.239 0.622559H233.629C213.955 26.7015 197.407 53.5323 181.402 79.4843C178.286 84.5377 175.19 89.558 172.095 94.5331C136.484 151.781 101.102 202.975 36.9927 231.489C25.8795 236.431 13.8879 240.699 0.865234 244.196V249.642Z" fill="black" fill-opacity="0.2"/>
</svg>
