<svg width="2055" height="2004" viewBox="0 0 2055 2004" fill="none" xmlns="http://www.w3.org/2000/svg">
<path fill-rule="evenodd" clip-rule="evenodd" d="M2054.65 886V810.285C1712.56 837.644 1495.87 929.395 1343.62 1048.81C1197.37 1163.52 1111.06 1303.47 1030.33 1434.37C1022.63 1446.85 1014.98 1459.25 1007.34 1471.54C919.367 1612.96 831.965 1739.42 673.598 1809.86C528.479 1874.4 322.734 1892.31 0.578125 1829.23V1842.48C322.6 1905.23 530.701 1887.64 678.881 1821.74C841.201 1749.54 930.379 1619.87 1018.38 1478.41C1025.94 1466.24 1033.5 1453.99 1041.1 1441.67L1041.29 1441.38L1041.31 1441.34C1122.16 1310.27 1207.3 1172.25 1351.64 1059.04C1375.18 1040.58 1400.3 1022.77 1427.25 1005.76C1396.88 1025.87 1368.63 1047.1 1342.21 1069.29C1194.78 1193.06 1106.75 1344.66 1026.76 1482.42L1026.73 1482.47C1019.2 1495.43 1011.74 1508.28 1004.31 1520.97C916.82 1670.35 833.783 1797.07 687.723 1868.92C546.635 1938.33 339.912 1959.52 0.578125 1884.15V1957.85C338.521 2030.89 559.861 2012.07 719.506 1933.53C731.539 1927.61 743.184 1921.37 754.467 1914.82C760.033 1912.31 765.516 1909.72 770.918 1907.06C929.59 1829 1018.08 1691.57 1105.42 1542.44C1112.82 1529.81 1120.21 1517.08 1127.64 1504.3C1208.07 1365.91 1292.52 1220.59 1433.97 1101.84C1476.18 1066.4 1523.51 1033.3 1577.37 1003.48C1699.06 945.353 1853.26 902.936 2054.65 886ZM1392.23 1121.32C1390.98 1122.35 1389.74 1123.39 1388.5 1124.43C1251.19 1239.71 1169.23 1380.67 1088.47 1519.56C1083.95 1527.32 1079.45 1535.08 1074.93 1542.82C1072.1 1547.67 1069.27 1552.51 1066.44 1557.35C1008.73 1655.89 948.807 1752.65 866.377 1830.7C961.947 1753.59 1027.91 1649.06 1094.2 1535.87C1099.7 1526.48 1105.21 1517.03 1110.73 1507.53L1116.5 1497.59C1190.35 1370.48 1268.65 1235.72 1392.23 1121.32Z" fill="#787878"/>
<path fill-rule="evenodd" clip-rule="evenodd" d="M2054.65 76.2231V0.508301C1712.56 27.8667 1495.87 119.618 1343.62 239.032C1197.37 353.744 1111.06 493.692 1030.33 624.59C1022.63 637.074 1014.98 649.475 1007.34 661.765C919.367 803.183 831.965 929.647 673.598 1000.08C528.479 1064.63 322.734 1082.54 0.578125 1019.46V1032.7C322.6 1095.46 530.701 1077.86 678.881 1011.96C841.201 939.767 930.379 810.093 1018.38 668.631C1025.94 656.464 1033.5 644.209 1041.1 631.891L1041.29 631.598L1041.31 631.559C1122.16 500.498 1207.3 362.473 1351.64 249.261C1375.18 230.8 1400.3 212.992 1427.25 195.981C1396.88 216.088 1368.63 237.328 1342.21 259.512C1194.78 383.28 1106.75 534.883 1026.76 672.639L1026.73 672.69C1019.2 685.658 1011.74 698.501 1004.31 711.189C916.82 860.577 833.783 987.294 687.723 1059.15C546.635 1128.56 339.912 1149.74 0.578125 1074.37V1148.08C338.521 1221.11 559.861 1202.29 719.506 1123.75C731.539 1117.83 743.184 1111.59 754.467 1105.05C760.033 1102.53 765.516 1099.94 770.918 1097.28C929.59 1019.23 1018.08 881.792 1105.42 732.667C1112.82 720.029 1120.21 707.306 1127.64 694.524C1208.07 556.128 1292.52 410.815 1433.97 292.062C1476.18 256.624 1523.51 223.524 1577.37 193.699C1699.06 135.576 1853.26 93.1587 2054.65 76.2231ZM1392.23 311.542C1390.98 312.578 1389.74 313.616 1388.5 314.656C1251.19 429.936 1169.23 570.892 1088.47 709.783C1083.95 717.544 1079.45 725.299 1074.93 733.043C1072.1 737.892 1069.27 742.737 1066.44 747.576C1008.73 846.116 948.807 942.874 866.377 1020.93C961.947 943.809 1027.91 839.284 1094.2 726.097C1099.7 716.704 1105.21 707.25 1110.73 697.75L1116.5 687.818C1190.35 560.708 1268.65 425.945 1392.23 311.542Z" fill="#787878"/>
</svg>
