<svg width="2055" height="2004" viewBox="0 0 2055 2004" fill="none" xmlns="http://www.w3.org/2000/svg">
<path fill-rule="evenodd" clip-rule="evenodd" d="M2054.4 885.805V810.09C1712.31 837.448 1495.62 929.199 1343.37 1048.61C1197.12 1163.33 1110.81 1303.27 1030.08 1434.17C1022.38 1446.66 1014.74 1459.06 1007.09 1471.35C919.121 1612.76 831.719 1739.23 673.352 1809.66C528.232 1874.21 322.488 1892.12 0.332031 1829.04V1842.28C322.354 1905.04 530.455 1887.45 678.635 1821.54C840.955 1749.35 930.133 1619.67 1018.13 1478.21C1025.7 1466.05 1033.26 1453.79 1040.86 1441.47L1041.04 1441.18L1041.06 1441.14C1121.91 1310.08 1207.06 1172.05 1351.4 1058.84C1374.93 1040.38 1400.05 1022.57 1427 1005.56C1396.64 1025.67 1368.38 1046.91 1341.96 1069.09C1194.54 1192.86 1106.5 1344.46 1026.51 1482.22L1026.48 1482.27C1018.95 1495.24 1011.49 1508.08 1004.06 1520.77C916.574 1670.16 833.537 1796.88 687.477 1868.73C546.389 1938.14 339.666 1959.32 0.332031 1883.95V1957.66C338.275 2030.69 559.615 2011.87 719.26 1933.34C731.293 1927.42 742.938 1921.17 754.221 1914.63C759.787 1912.11 765.27 1909.52 770.672 1906.87C929.344 1828.81 1017.84 1691.37 1105.17 1542.25C1112.57 1529.61 1119.97 1516.89 1127.4 1504.11C1207.82 1365.71 1292.27 1220.4 1433.72 1101.64C1475.93 1066.21 1523.26 1033.11 1577.13 1003.28C1698.81 945.157 1853.01 902.74 2054.4 885.805ZM1391.98 1121.12C1390.74 1122.16 1389.49 1123.2 1388.25 1124.24C1250.94 1239.52 1168.98 1380.47 1088.22 1519.36C1083.71 1527.13 1079.2 1534.88 1074.68 1542.62C1071.86 1547.47 1069.03 1552.32 1066.19 1557.16C1008.48 1655.7 948.561 1752.46 866.131 1830.51C961.701 1753.39 1027.67 1648.87 1093.96 1535.68C1099.46 1526.29 1104.96 1516.83 1110.48 1507.33L1116.25 1497.4C1190.11 1370.29 1268.4 1235.53 1391.98 1121.12Z" fill="white"/>
<path fill-rule="evenodd" clip-rule="evenodd" d="M2054.4 76.0283V0.313477C1712.31 27.6719 1495.62 119.423 1343.37 238.837C1197.12 353.549 1110.81 493.497 1030.08 624.396C1022.38 636.879 1014.74 649.28 1007.09 661.57C919.121 802.988 831.719 929.452 673.352 999.888C528.232 1064.43 322.488 1082.34 0.332031 1019.26V1032.51C322.354 1095.26 530.455 1077.67 678.635 1011.77C840.955 939.572 930.133 809.898 1018.13 668.437C1025.7 656.27 1033.26 644.015 1040.86 631.696L1041.04 631.403L1041.06 631.364C1121.91 500.303 1207.06 362.278 1351.4 249.066C1374.93 230.605 1400.05 212.797 1427 195.786C1396.64 215.894 1368.38 237.133 1341.96 259.317C1194.54 383.085 1106.5 534.688 1026.51 672.444L1026.48 672.495C1018.95 685.463 1011.49 698.307 1004.06 710.994C916.574 860.382 833.537 987.1 687.477 1058.95C546.389 1128.36 339.666 1149.54 0.332031 1074.17V1147.88C338.275 1220.92 559.615 1202.09 719.26 1123.56C731.293 1117.64 742.938 1111.4 754.221 1104.85C759.787 1102.33 765.27 1099.75 770.672 1097.09C929.344 1019.03 1017.84 881.598 1105.17 732.472C1112.57 719.834 1119.97 707.111 1127.4 694.329C1207.82 555.934 1292.27 410.62 1433.72 291.867C1475.93 256.429 1523.26 223.329 1577.13 193.504C1698.81 135.381 1853.01 92.9639 2054.4 76.0283ZM1391.98 311.347C1390.74 312.383 1389.49 313.421 1388.25 314.461C1250.94 429.741 1168.98 570.697 1088.22 709.588C1083.71 717.35 1079.2 725.104 1074.68 732.849C1071.86 737.697 1069.03 742.542 1066.19 747.381C1008.48 845.921 948.561 942.679 866.131 1020.73C961.701 943.614 1027.67 839.089 1093.96 725.902C1099.46 716.509 1104.96 707.056 1110.48 697.556L1116.25 687.623C1190.11 560.513 1268.4 425.75 1391.98 311.347Z" fill="white"/>
</svg>
