<svg width="2055" height="2004" viewBox="0 0 2055 2004" fill="none" xmlns="http://www.w3.org/2000/svg">
<path fill-rule="evenodd" clip-rule="evenodd" d="M0.199219 885.614V809.899C342.287 837.257 558.979 929.008 711.227 1048.42C857.479 1163.13 943.789 1303.08 1024.52 1433.98C1032.21 1446.46 1039.86 1458.87 1047.51 1471.16C1135.48 1612.57 1222.88 1739.04 1381.25 1809.47C1526.37 1874.02 1732.11 1891.93 2054.27 1828.85V1842.09C1732.25 1904.85 1524.14 1887.25 1375.96 1821.35C1213.64 1749.16 1124.47 1619.48 1036.47 1478.02C1028.9 1465.85 1021.34 1453.6 1013.74 1441.28L1013.56 1440.99L1013.54 1440.95C932.688 1309.89 847.543 1171.86 703.203 1058.65C679.668 1040.19 654.545 1022.38 627.596 1005.37C657.963 1025.48 686.217 1046.72 712.641 1068.9C860.062 1192.67 948.096 1344.27 1028.09 1482.03L1028.12 1482.08C1035.65 1495.05 1043.11 1507.89 1050.54 1520.58C1138.03 1669.97 1221.06 1796.69 1367.12 1868.54C1508.21 1937.95 1714.93 1959.13 2054.27 1883.76V1957.47C1716.32 2030.5 1494.98 2011.68 1335.34 1933.15C1323.31 1927.23 1311.66 1920.98 1300.38 1914.44C1294.81 1911.92 1289.33 1909.33 1283.93 1906.67C1125.26 1828.62 1036.76 1691.18 949.428 1542.06C942.025 1529.42 934.631 1516.7 927.203 1503.91C846.775 1365.52 762.328 1220.21 620.879 1101.45C578.666 1066.01 531.338 1032.91 477.473 1003.09C355.785 944.966 201.59 902.549 0.199219 885.614ZM662.615 1120.93C663.863 1121.97 665.107 1123.01 666.346 1124.05C803.66 1239.33 885.619 1380.28 966.379 1519.17C970.893 1526.94 975.4 1534.69 979.916 1542.43C982.742 1547.28 985.572 1552.13 988.406 1556.97C1046.12 1655.51 1106.04 1752.26 1188.47 1830.32C1092.9 1753.2 1026.93 1648.67 960.645 1535.49C955.143 1526.09 949.639 1516.64 944.117 1507.14L938.346 1497.21C864.494 1370.1 786.197 1235.34 662.615 1120.93Z" fill="white"/>
<path fill-rule="evenodd" clip-rule="evenodd" d="M0.199219 75.8364V0.121582C342.287 27.48 558.979 119.231 711.227 238.645C857.479 353.357 943.789 493.305 1024.52 624.204C1032.21 636.687 1039.86 649.088 1047.51 661.378C1135.48 802.796 1222.88 929.26 1381.25 999.696C1526.37 1064.24 1732.11 1082.15 2054.27 1019.07V1032.31C1732.25 1095.07 1524.14 1077.48 1375.96 1011.57C1213.64 939.38 1124.47 809.707 1036.47 668.245C1028.9 656.078 1021.34 643.823 1013.74 631.504L1013.56 631.211L1013.54 631.172C932.688 500.111 847.543 362.086 703.203 248.875C679.668 230.414 654.545 212.605 627.596 195.594C657.963 215.702 686.217 236.941 712.641 259.125C860.062 382.893 948.096 534.497 1028.09 672.252L1028.12 672.303C1035.65 685.271 1043.11 698.115 1050.54 710.802C1138.03 860.19 1221.06 986.908 1367.12 1058.76C1508.21 1128.17 1714.93 1149.35 2054.27 1073.98V1147.69C1716.32 1220.73 1494.98 1201.9 1335.34 1123.37C1323.31 1117.45 1311.66 1111.2 1300.38 1104.66C1294.81 1102.14 1289.33 1099.56 1283.93 1096.9C1125.26 1018.84 1036.76 881.406 949.428 732.28C942.025 719.642 934.631 706.919 927.203 694.137C846.775 555.742 762.328 410.428 620.879 291.675C578.666 256.237 531.338 223.137 477.473 193.312C355.785 135.189 201.59 92.772 0.199219 75.8364ZM662.615 311.155C663.863 312.191 665.107 313.229 666.346 314.269C803.66 429.549 885.619 570.505 966.379 709.396C970.893 717.158 975.4 724.913 979.916 732.657C982.742 737.505 985.572 742.35 988.406 747.189C1046.12 845.729 1106.04 942.487 1188.47 1020.54C1092.9 943.422 1026.93 838.897 960.645 725.71C955.143 716.317 949.639 706.864 944.117 697.364L938.346 687.431C864.494 560.321 786.197 425.558 662.615 311.155Z" fill="white"/>
</svg>
