{
    "asset" : {
        "generator" : "Khronos glTF Blender I/O v3.4.50",
        "version" : "2.0"
    },
    "scene" : 0,
    "scenes" : [
        {
            "name" : "Scene",
            "nodes" : [
                0
            ]
        }
    ],
    "nodes" : [
        {
            "mesh" : 0,
            "name" : "T_shirt_female"
        }
    ],
    "meshes" : [
        {
            "name" : "Plane.001",
            "primitives" : [
                {
                    "attributes" : {
                        "POSITION" : 0,
                        "TEXCOORD_0" : 1,
                        "NORMAL" : 2
                    },
                    "indices" : 3
                }
            ]
        }
    ],
    "accessors" : [
        {
            "bufferView" : 0,
            "componentType" : 5126,
            "count" : 16531,
            "max" : [
                0.3132871389389038,
                0.27270564436912537,
                0.13491839170455933
            ],
            "min" : [
                -0.3522299528121948,
                -0.4309505820274353,
                -0.17309877276420593
            ],
            "type" : "VEC3"
        },
        {
            "bufferView" : 1,
            "componentType" : 5126,
            "count" : 16531,
            "type" : "VEC2"
        },
        {
            "bufferView" : 2,
            "componentType" : 5126,
            "count" : 16531,
            "type" : "VEC3"
        },
        {
            "bufferView" : 3,
            "componentType" : 5123,
            "count" : 85152,
            "type" : "SCALAR"
        }
    ],
    "bufferViews" : [
        {
            "buffer" : 0,
            "byteLength" : 198372,
            "byteOffset" : 0,
            "target" : 34962
        },
        {
            "buffer" : 0,
            "byteLength" : 132248,
            "byteOffset" : 198372,
            "target" : 34962
        },
        {
            "buffer" : 0,
            "byteLength" : 198372,
            "byteOffset" : 330620,
            "target" : 34962
        },
        {
            "buffer" : 0,
            "byteLength" : 170304,
            "byteOffset" : 528992,
            "target" : 34963
        }
    ],
    "buffers" : [
        {
            "byteLength" : 699296,
            "uri" : "data:application/octet-stream;base64,"
        }
    ]
}
