{
    "asset" : {
        "generator" : "Khronos glTF Blender I/O v3.4.50",
        "version" : "2.0"
    },
    "scene" : 0,
    "scenes" : [
        {
            "name" : "Scene",
            "nodes" : [
                0
            ]
        }
    ],
    "nodes" : [
        {
            "mesh" : 0,
            "name" : "T_shirt_female"
        }
    ],
    "meshes" : [
        {
            "name" : "Plane.003",
            "primitives" : [
                {
                    "attributes" : {
                        "POSITION" : 0,
                        "TEXCOORD_0" : 1,
                        "NORMAL" : 2
                    },
                    "indices" : 3
                }
            ]
        }
    ],
    "accessors" : [
        {
            "bufferView" : 0,
            "componentType" : 5126,
            "count" : 29503,
            "max" : [
                0.2854136824607849,
                0.17923226952552795,
                0.1343955099582672
            ],
            "min" : [
                -0.2806691527366638,
                -0.40912720561027527,
                -0.13539709150791168
            ],
            "type" : "VEC3"
        },
        {
            "bufferView" : 1,
            "componentType" : 5126,
            "count" : 29503,
            "type" : "VEC2"
        },
        {
            "bufferView" : 2,
            "componentType" : 5126,
            "count" : 29503,
            "type" : "VEC3"
        },
        {
            "bufferView" : 3,
            "componentType" : 5123,
            "count" : 176640,
            "type" : "SCALAR"
        }
    ],
    "bufferViews" : [
        {
            "buffer" : 0,
            "byteLength" : 354036,
            "byteOffset" : 0,
            "target" : 34962
        },
        {
            "buffer" : 0,
            "byteLength" : 236024,
            "byteOffset" : 354036,
            "target" : 34962
        },
        {
            "buffer" : 0,
            "byteLength" : 354036,
            "byteOffset" : 590060,
            "target" : 34962
        },
        {
            "buffer" : 0,
            "byteLength" : 353280,
            "byteOffset" : 944096,
            "target" : 34963
        }
    ],
    "buffers" : [
        {
            "byteLength" : 1297376,
            "uri" : "data:application/octet-stream;base64,"
        }
    ]
}
