{
    "asset" : {
        "generator" : "Khronos glTF Blender I/O v3.4.50",
        "version" : "2.0"
    },
    "scene" : 0,
    "scenes" : [
        {
            "name" : "Scene",
            "nodes" : [
                0
            ]
        }
    ],
    "nodes" : [
        {
            "mesh" : 0,
            "name" : "T_shirt_children"
        }
    ],
    "meshes" : [
        {
            "name" : "Plane.001",
            "primitives" : [
                {
                    "attributes" : {
                        "POSITION" : 0,
                        "TEXCOORD_0" : 1,
                        "NORMAL" : 2
                    },
                    "indices" : 3
                }
            ]
        }
    ],
    "accessors" : [
        {
            "bufferView" : 0,
            "componentType" : 5126,
            "count" : 56184,
            "max" : [
                0.2742134630680084,
                0.1942380964756012,
                0.12668658792972565
            ],
            "min" : [
                -0.2729526162147522,
                -0.3331010043621063,
                -0.13115672767162323
            ],
            "type" : "VEC3"
        },
        {
            "bufferView" : 1,
            "componentType" : 5126,
            "count" : 56184,
            "type" : "VEC2"
        },
        {
            "bufferView" : 2,
            "componentType" : 5126,
            "count" : 56184,
            "type" : "VEC3"
        },
        {
            "bufferView" : 3,
            "componentType" : 5123,
            "count" : 82848,
            "type" : "SCALAR"
        }
    ],
    "bufferViews" : [
        {
            "buffer" : 0,
            "byteLength" : 674208,
            "byteOffset" : 0,
            "target" : 34962
        },
        {
            "buffer" : 0,
            "byteLength" : 449472,
            "byteOffset" : 674208,
            "target" : 34962
        },
        {
            "buffer" : 0,
            "byteLength" : 674208,
            "byteOffset" : 1123680,
            "target" : 34962
        },
        {
            "buffer" : 0,
            "byteLength" : 165696,
            "byteOffset" : 1797888,
            "target" : 34963
        }
    ],
    "buffers" : [
        {
            "byteLength" : 1963584,
            "uri" : "data:application/octet-stream;base64,"
        }
    ]
}
