{
    "asset" : {
        "generator" : "Khronos glTF Blender I/O v3.4.50",
        "version" : "2.0"
    },
    "scene" : 0,
    "scenes" : [
        {
            "name" : "Scene",
            "nodes" : [
                0
            ]
        }
    ],
    "nodes" : [
        {
            "mesh" : 0,
            "name" : "T_shirt_women"
        }
    ],
    "meshes" : [
        {
            "name" : "Plane.001",
            "primitives" : [
                {
                    "attributes" : {
                        "POSITION" : 0,
                        "TEXCOORD_0" : 1,
                        "NORMAL" : 2
                    },
                    "indices" : 3
                }
            ]
        }
    ],
    "accessors" : [
        {
            "bufferView" : 0,
            "componentType" : 5126,
            "count" : 62982,
            "max" : [
                0.28070586919784546,
                0.2625064551830292,
                0.15255197882652283
            ],
            "min" : [
                -0.30919116735458374,
                -0.386553555727005,
                -0.13325180113315582
            ],
            "type" : "VEC3"
        },
        {
            "bufferView" : 1,
            "componentType" : 5126,
            "count" : 62982,
            "type" : "VEC2"
        },
        {
            "bufferView" : 2,
            "componentType" : 5126,
            "count" : 62982,
            "type" : "VEC3"
        },
        {
            "bufferView" : 3,
            "componentType" : 5123,
            "count" : 91200,
            "type" : "SCALAR"
        }
    ],
    "bufferViews" : [
        {
            "buffer" : 0,
            "byteLength" : 755784,
            "byteOffset" : 0,
            "target" : 34962
        },
        {
            "buffer" : 0,
            "byteLength" : 503856,
            "byteOffset" : 755784,
            "target" : 34962
        },
        {
            "buffer" : 0,
            "byteLength" : 755784,
            "byteOffset" : 1259640,
            "target" : 34962
        },
        {
            "buffer" : 0,
            "byteLength" : 182400,
            "byteOffset" : 2015424,
            "target" : 34963
        }
    ],
    "buffers" : [
        {
            "byteLength" : 2197824,
            "uri" : "data:application/octet-stream;base64,"
        }
    ]
}
