<svg width="1739" height="1604" viewBox="0 0 1739 1604" fill="none" xmlns="http://www.w3.org/2000/svg">
<path fill-rule="evenodd" clip-rule="evenodd" d="M0.351562 0.720215V264.993L58.1787 279.217V459.307L732.024 625.054L789.241 392.444L737.69 379.764L783.541 193.361L0.351562 0.720215ZM737.69 379.764L58.1787 212.624V279.217L722.245 442.557L737.69 379.764ZM0.351562 513.266V777.538L58.1787 791.762V937.739L732.024 1103.49L789.241 870.876L745.603 860.142L783.541 705.907L0.351562 513.266ZM745.603 860.142L58.1787 691.056V791.762L722.245 955.103L745.603 860.142ZM0.351562 1312.97V1048.69L783.541 1241.33L753.868 1361.97L58.1787 1190.85V1327.19L0.351562 1312.97ZM58.1787 1327.19V1437.53L732.024 1603.28L789.241 1370.67L753.868 1361.97L722.245 1490.53L58.1787 1327.19ZM1738.18 1312.97V1048.69L954.996 1241.33L984.667 1361.96L949.284 1370.67L1006.5 1603.28L1680.34 1437.53V1327.19L1738.18 1312.97ZM1680.34 1327.19V1190.85L984.667 1361.96L1016.29 1490.53L1680.34 1327.19ZM1738.18 513.266V777.538L1680.34 791.765V691.056L992.932 860.139L954.996 705.907L1738.18 513.266ZM992.932 860.139L949.284 870.876L1006.5 1103.49L1680.34 937.739V791.765L1016.29 955.103L992.932 860.139ZM1738.18 264.993V0.720215L954.996 193.361L1000.84 379.761L949.284 392.444L1006.5 625.054L1680.34 459.307V279.219L1738.18 264.993ZM1680.34 279.219V212.624L1000.84 379.761L1016.29 442.557L1680.34 279.219Z" fill="white" fill-opacity="0.54"/>
</svg>
